<svg width="231" height="267" viewBox="0 0 231 267" fill="none" xmlns="http://www.w3.org/2000/svg">
<path fill-rule="evenodd" clip-rule="evenodd" d="M170.631 168.875H122.369C122.369 171.287 122.723 173.615 123.381 175.812C124.83 180.645 127.754 184.839 131.629 187.875C135.727 191.086 140.891 193 146.5 193C152.109 193 157.273 191.086 161.371 187.875C165.246 184.839 168.17 180.645 169.619 175.812C170.277 173.615 170.631 171.287 170.631 168.875ZM218.891 156.812C226.103 156.812 230.962 150.932 231 144.75C231.019 141.904 230.015 138.994 227.752 136.566C227.299 136.08 226.822 135.579 226.325 135.057C218.822 127.175 206.827 114.573 206.827 78.4062C206.827 49.117 186.275 25.6705 158.564 19.9182V12.0625C158.564 5.40174 153.162 0 146.5 0C139.838 0 134.436 5.40174 134.436 12.0625V19.9182C106.725 25.6705 86.1732 49.117 86.1732 78.4062C86.1732 114.573 74.1778 127.175 66.675 135.057C66.1781 135.579 65.7009 136.08 65.2482 136.566C62.9848 138.998 61.9814 141.904 62.0003 144.75C62.0418 150.932 66.8967 156.812 74.1094 156.812H218.891ZM89.2264 137.812H203.774C201.658 134.87 199.495 131.421 197.523 127.431C191.656 115.56 187.827 99.9774 187.827 78.4062C187.827 58.6241 174.098 42.5477 154.702 38.5216L146.5 36.819L138.298 38.5216C118.902 42.5477 105.173 58.6241 105.173 78.4062C105.173 99.9774 101.344 115.56 95.4771 127.431C93.5049 131.421 91.3423 134.87 89.2264 137.812Z" fill="#4568E7"/>
<path d="M123.141 201.124C110.058 193.448 98.619 183.271 89.4827 171.248C84.6433 174.538 78.7966 176.461 72.5 176.461C55.8163 176.461 42.2917 162.96 42.2917 146.305C42.2917 131.527 52.9392 119.232 66.9936 116.648C66.3382 111.669 66 106.589 66 101.43C66 91.9786 67.1353 82.7923 69.2769 74C30.7317 75.6834 0 107.411 0 146.305C0 170.281 6.87531 180.059 39.7616 226.828C46.9 236.98 55.2639 248.875 65.0491 263.036C68.6492 268.228 76.3504 268.228 79.9509 263.036C89.7361 248.875 98.1 236.98 105.238 226.828C112.362 216.698 118.264 208.303 123.141 201.124Z" fill="#4568E7"/>
</svg>
